<mxfile host="drawio-plugin" modified="2024-01-11T18:47:27.440Z" agent="5.0 (Windows NT 6.2; Win64; x64) AppleWebKit/537.36 (KHTML, like Gecko) Chrome/104.0.5112.102 Safari/537.36" etag="RIWimJSu-s0T0As-_2nO" version="20.5.3" type="embed"><diagram id="3byfMKk2iEbSwEwPouA_" name="Page-1"><mxGraphModel dx="664" dy="563" grid="1" gridSize="10" guides="1" tooltips="1" connect="1" arrows="1" fold="1" page="1" pageScale="1" pageWidth="850" pageHeight="1100" math="0" shadow="0"><root><mxCell id="0"/><mxCell id="1" parent="0"/><mxCell id="11" value="«interface»&lt;br&gt;&lt;b&gt;Observer&lt;/b&gt;" style="html=1;fillColor=#60a917;fontColor=#ffffff;strokeColor=#2D7600;" vertex="1" parent="1"><mxGeometry x="260" y="20" width="170" height="30" as="geometry"/></mxCell><mxCell id="12" value="&lt;p style=&quot;margin: 4px 0px 0px;&quot;&gt;+ method:update(String)&amp;nbsp; &amp;nbsp; &amp;nbsp;void&lt;br&gt;&lt;br&gt;&lt;/p&gt;" style="verticalAlign=top;align=left;overflow=fill;fontSize=12;fontFamily=Helvetica;html=1;fillColor=#6d8764;fontColor=#ffffff;strokeColor=#3A5431;" vertex="1" parent="1"><mxGeometry x="260" y="50" width="170" height="20" as="geometry"/></mxCell><mxCell id="13" value="NewsChannel" style="swimlane;fontStyle=1;align=center;verticalAlign=top;childLayout=stackLayout;horizontal=1;startSize=26;horizontalStack=0;resizeParent=1;resizeParentMax=0;resizeLast=0;collapsible=1;marginBottom=0;fillColor=#1ba1e2;fontColor=#ffffff;strokeColor=#006EAF;" vertex="1" parent="1"><mxGeometry x="390" y="150" width="180" height="48" as="geometry"/></mxCell><mxCell id="14" value="+ field: channelName       String" style="text;strokeColor=#432D57;fillColor=#76608a;align=left;verticalAlign=top;spacingLeft=4;spacingRight=4;overflow=hidden;rotatable=0;points=[[0,0.5],[1,0.5]];portConstraint=eastwest;fontColor=#ffffff;" vertex="1" parent="13"><mxGeometry y="26" width="180" height="22" as="geometry"/></mxCell><mxCell id="16" value="+ method: update(String)    void" style="text;strokeColor=#006EAF;fillColor=#6D8764;align=left;verticalAlign=top;spacingLeft=4;spacingRight=4;overflow=hidden;rotatable=0;points=[[0,0.5],[1,0.5]];portConstraint=eastwest;fontColor=#FFFFFF;" vertex="1" parent="1"><mxGeometry x="390" y="198" width="180" height="26" as="geometry"/></mxCell><mxCell id="17" value="NewAgency" style="swimlane;fontStyle=1;align=center;verticalAlign=top;childLayout=stackLayout;horizontal=1;startSize=26;horizontalStack=0;resizeParent=1;resizeParentMax=0;resizeLast=0;collapsible=1;marginBottom=0;fillColor=#1ba1e2;fontColor=#ffffff;strokeColor=#006EAF;" vertex="1" parent="1"><mxGeometry x="20" y="110" width="210" height="48" as="geometry"/></mxCell><mxCell id="18" value="+ field: news                           String" style="text;strokeColor=#432D57;fillColor=#76608a;align=left;verticalAlign=top;spacingLeft=4;spacingRight=4;overflow=hidden;rotatable=0;points=[[0,0.5],[1,0.5]];portConstraint=eastwest;fontColor=#ffffff;" vertex="1" parent="17"><mxGeometry y="26" width="210" height="22" as="geometry"/></mxCell><mxCell id="21" value="+ field: observers      List&lt;Observer&gt;" style="text;strokeColor=#432D57;fillColor=#76608a;align=left;verticalAlign=top;spacingLeft=4;spacingRight=4;overflow=hidden;rotatable=0;points=[[0,0.5],[1,0.5]];portConstraint=eastwest;fontColor=#ffffff;" vertex="1" parent="1"><mxGeometry x="20" y="158" width="210" height="22" as="geometry"/></mxCell><mxCell id="23" value="" style="endArrow=block;dashed=1;endFill=0;endSize=12;html=1;rounded=0;fillColor=#60a917;strokeColor=#80FF00;" edge="1" parent="1"><mxGeometry width="160" relative="1" as="geometry"><mxPoint x="440.1400000000001" y="146" as="sourcePoint"/><mxPoint x="370" y="70" as="targetPoint"/><Array as="points"><mxPoint x="440" y="146.39999999999998"/></Array></mxGeometry></mxCell></root></mxGraphModel></diagram></mxfile>